<svg xmlns="http://www.w3.org/2000/svg" viewBox="0 0 64 112">
  <defs>
    <linearGradient id="body" x1="0" x2="1" y1="0" y2="1">
      <stop offset="0" stop-color="#ffffff"/>
      <stop offset="1" stop-color="#eef2f7"/>
    </linearGradient>
    <filter id="shadow" x="-18%" y="-40%" width="140%" height="190%">
      <feDropShadow dx="0" dy="6" stdDeviation="5" flood-color="#172026" flood-opacity=".36"/>
    </filter>
  </defs>
  <g filter="url(#shadow)">
    <path d="M15 8h34c6 0 10 5 10 13v70c0 8-4 13-10 13H15C9 104 5 99 5 91V21C5 13 9 8 15 8z" fill="url(#body)"/>
    <path d="M9 19c1-4 3-7 6-9l5 5c-5 3-8 8-8 14zM55 19c-1-4-3-7-6-9l-5 5c5 3 8 8 8 14zM9 93c1 4 3 7 6 9l5-5c-5-3-8-8-8-14zM55 93c-1 4-3 7-6 9l-5-5c5-3 8-8 8-14z" fill="#ff7667"/>
    <path d="M16 15h32c4 0 6 3 6 7v68c0 4-2 7-6 7H16c-4 0-6-3-6-7V22c0-4 2-7 6-7z" fill="none" stroke="#d9dde2" stroke-width="2"/>
    <path d="M16 18h32v17H16z" fill="#050505"/>
    <path d="M20 21h24v11H20z" fill="#3f444a"/>
    <path d="M17 42h30v7H17zM17 53h30v7H17zM17 64h30v7H17zM17 75h30v5H17z" fill="#14181d"/>
    <path d="M10 40h5v32h-5zM49 40h5v32h-5z" fill="#101418"/>
    <path d="M16 98h9v7h-9zM39 98h9v7h-9z" fill="#050505"/>
  </g>
</svg>
