<svg xmlns="http://www.w3.org/2000/svg" viewBox="0 0 96 64">
  <filter id="shadow" x="-30%" y="-40%" width="160%" height="180%">
    <feDropShadow dx="0" dy="5" stdDeviation="4" flood-color="#172026" flood-opacity=".36"/>
  </filter>
  <g filter="url(#shadow)">
    <path d="M17 18c3-7 9-11 18-12h26c9 1 15 5 18 12l4 14-4 14c-3 7-9 11-18 12H35c-9-1-15-5-18-12l-4-14z" fill="#ffffff"/>
    <path d="M15 19c2-5 5-9 9-11l4 5c-5 2-8 5-10 10zM81 19c-2-5-5-9-9-11l-4 5c5 2 8 5 10 10zM15 45c2 5 5 9 9 11l4-5c-5-2-8-5-10-10zM81 45c-2 5-5 9-9 11l-4-5c5-2 8-5 10-10z" fill="#ff9a8c"/>
    <path d="M33 13h30l-7 9H40zM33 51h30l-7-9H40z" fill="#050505"/>
    <path d="M22 20c6-2 13-2 20-1-2 8-2 18 0 26-7 1-14 1-20-1-3-8-3-16 0-24zM74 20c-6-2-13-2-20-1 2 8 2 18 0 26 7 1 14 1 20-1 3-8 3-16 0-24z" fill="#050505"/>
    <path d="M42 24h12c5 0 10 2 14 6l2 2-2 2c-4 4-9 6-14 6H42c-5 0-10-2-14-6l-2-2 2-2c4-4 9-6 14-6z" fill="#f8fafc"/>
    <path d="M42 24h12c5 0 10 2 14 6l2 2H26l2-2c4-4 9-6 14-6z" fill="#f1f5f9"/>
    <path d="M67 10l8-5 3 6-9 5zM67 54l8 5 3-6-9-5z" fill="#f8fafc"/>
  </g>
</svg>
