<svg xmlns="http://www.w3.org/2000/svg" viewBox="0 0 120 120">
  <defs>
    <linearGradient id="body" x1="0" x2="1" y1="0" y2="1">
      <stop offset="0" stop-color="#ffffff"/>
      <stop offset="1" stop-color="#eef2f7"/>
    </linearGradient>
    <filter id="shadow" x="-20%" y="-35%" width="140%" height="170%">
      <feDropShadow dx="0" dy="6" stdDeviation="5" flood-color="#172026" flood-opacity=".32"/>
    </filter>
  </defs>
  <g filter="url(#shadow)">
    <path d="M60 6c8 10 11 24 10 43l43 18v12L68 70l-3 28 13 9v7l-18-7-18 7v-7l13-9-3-28-45 9V67l43-18C49 30 52 16 60 6z" fill="url(#body)"/>
    <path d="M51 25c3-11 6-16 9-16s6 5 9 16c-6-3-12-3-18 0z" fill="#ff7667"/>
    <path d="M50 28c7-7 13-7 20 0 3 6 4 13 4 23-9-3-19-3-28 0 0-10 1-17 4-23z" fill="#050505"/>
    <path d="M9 67h8v12H9c-4 0-6-3-6-6s2-6 6-6zM111 67h-8v12h8c4 0 6-3 6-6s-2-6-6-6zM44 98h13v10H44c-5 0-7-3-7-6s3-6 7-4zM76 98H63v10h13c5 0 7-3 7-6s-3-6-7-4z" fill="#ff7667"/>
    <path d="M50 55h20v17H50zM55 77h10v8H55z" fill="#050505"/>
  </g>
</svg>
