<svg xmlns="http://www.w3.org/2000/svg" viewBox="0 0 64 96">
  <filter id="shadow" x="-35%" y="-25%" width="170%" height="150%">
    <feDropShadow dx="0" dy="5" stdDeviation="4" flood-color="#172026" flood-opacity=".38"/>
  </filter>
  <g filter="url(#shadow)">
    <path d="M18 21c2-10 7-15 14-15s12 5 14 15l5 19v34c0 9-7 16-19 16S13 83 13 74V40z" fill="#fff"/>
    <path d="M16 23c1-5 3-9 6-12l5 4c-4 3-6 7-7 13zM48 23c-1-5-3-9-6-12l-5 4c4 3 6 7 7 13zM16 73c1 5 3 9 6 12l5-4c-4-3-6-7-7-13zM48 73c-1 5-3 9-6 12l-5-4c4-3 6-7 7-13z" fill="#ff8a7a"/>
    <path d="M22 23h20l-5 10H27zM22 75h20l-5-10H27z" fill="#050505"/>
    <path d="M19 36c6-3 20-3 26 0 2 9 2 15 0 24-6 3-20 3-26 0-2-9-2-15 0-24z" fill="#fff"/>
    <path d="M15 37h9c-2 8-2 14 0 22h-9c-3-7-3-15 0-22zM40 37h9c3 7 3 15 0 22h-9c2-8 2-14 0-22z" fill="#050505"/>
  </g>
</svg>
