<svg xmlns="http://www.w3.org/2000/svg" viewBox="0 0 160 96">
  <defs>
    <linearGradient id="body" x1="0" x2="1" y1="0" y2="1">
      <stop offset="0" stop-color="#ffffff"/>
      <stop offset="1" stop-color="#eef2f7"/>
    </linearGradient>
    <filter id="shadow" x="-20%" y="-35%" width="140%" height="170%">
      <feDropShadow dx="0" dy="6" stdDeviation="5" flood-color="#172026" flood-opacity=".32"/>
    </filter>
  </defs>
  <g filter="url(#shadow)">
    <path d="M80 7c7 0 13 9 16 26l2 26-8 27c-1 4-5 7-10 7s-9-3-10-7l-8-27 2-26C67 16 73 7 80 7z" fill="url(#body)"/>
    <path d="M74 16c4-6 8-6 12 0 4 5 7 14 8 27-8-3-20-3-28 0 1-13 4-22 8-27z" fill="#050505"/>
    <path d="M14 44l52-11c4-1 7 2 7 6v13c0 5-4 8-8 8H14c-4 0-7-3-7-8s3-8 7-8z" fill="url(#body)"/>
    <path d="M146 44L94 33c-4-1-7 2-7 6v13c0 5 4 8 8 8h51c4 0 7-3 7-8s-3-8-7-8z" fill="url(#body)"/>
    <path d="M7 52c0-5 3-8 7-8h3v16h-3c-4 0-7-3-7-8zM153 52c0-5-3-8-7-8h-3v16h3c4 0 7-3 7-8zM75 8c3-2 7-2 10 0 2 1 4 3 6 7H69c2-4 4-6 6-7zM60 82h18v11H60c-4 0-7-3-7-7s3-7 7-4zM100 82H82v11h18c4 0 7-3 7-7s-3-7-7-4z" fill="#ff7667"/>
    <path d="M55 51h9c2 0 3 1 3 3s-1 3-3 3h-9c-2 0-3-1-3-3s1-3 3-3zM96 51h9c2 0 3 1 3 3s-1 3-3 3h-9c-2 0-3-1-3-3s1-3 3-3zM72 65h6c2 0 3 1 3 3s-1 3-3 3h-6c-2 0-3-1-3-3s1-3 3-3zM68 37h24c1 6 1 15 0 25H68c-1-10-1-19 0-25z" fill="#050505"/>
    <path d="M78 84h4v8h-4zM74 92h12l-6 2z" fill="#050505"/>
  </g>
</svg>
